<svg version="1.1" xmlns="http://www.w3.org/2000/svg" x="0" y="0" viewBox="0 0 356 400.9" xml:space="preserve">
	<path fill="#FFF" stroke="#000" stroke-miterlimit="10" d="m343.7 363.5-333 36.9c-5.5.6-10.2-3.7-10.2-9.2l1-381.5c0-5.3 4.5-9.5 9.9-9.1l334.4 24.4c4.8.4 8.6 4.4 8.5 9.2l-2.4 320.2c0 4.7-3.5 8.6-8.2 9.1zm6.1-4.6-333 35.3c-3.7.4-6.9-2.5-6.9-6.3l2-378.5c0-3.6 3.1-6.5 6.8-6.2l326.7 26.8c3.2.3 5.7 2.9 5.8 6.2l4.3 316.4c0 3.3-2.4 6-5.7 6.3zm-279.9-161.3a126.3 134.3 0 10252.6 0 126.3 134.3 0 10-252.6 0m7.6 1a120.7 128.7 0 10241.4 0 120.7 128.7 0 10-241.4 0"/>
</svg>